<?xml version="1.0" encoding="utf-8"?>
<!-- Generator: Adobe Illustrator 27.5.0, SVG Export Plug-In . SVG Version: 6.00 Build 0)  -->
<svg version="1.1" xmlns="http://www.w3.org/2000/svg" xmlns:xlink="http://www.w3.org/1999/xlink" x="0px" y="0px"
	 viewBox="0 0 3710 3710" style="enable-background:new 0 0 3710 3710;" xml:space="preserve">
<g id="Background">
	<g>
		<g>
			<rect style="fill:#FFFFFF;" width="3710" height="3710"/>
		</g>
	</g>
</g>
<g id="Illustration">
	<g>
		<linearGradient id="SVGID_1_" gradientUnits="userSpaceOnUse" x1="3566.6895" y1="4079.2839" x2="1081.629" y2="992.9949">
			<stop  offset="0" style="stop-color:#DAE3FE"/>
			<stop  offset="1" style="stop-color:#E9EFFD"/>
		</linearGradient>
		<path style="fill:url(#SVGID_1_);" d="M2883.034,2862.163c-57.081,60.092-111.09,98.845-153.762,129.462
			c-501.598,359.902-1095.121,254.993-1221.262,229.372c-186.27-37.832-546.326-110.961-806.639-417.085
			c-393.833-463.14-332.507-1192.803-27.024-1674.464c55.878-88.104,351.04-577.102,950.956-655.522
			c363.063-47.459,786.278,48.26,1092.758,305.03C3361.39,1317.939,3315.592,2406.78,2883.034,2862.163z"/>
		
			<linearGradient id="SVGID_00000080208003544450988200000015327658734512949132_" gradientUnits="userSpaceOnUse" x1="2545.5098" y1="285.1008" x2="2186.9685" y2="1555.0774" gradientTransform="matrix(0.9931 0.1176 -0.1176 0.9931 56.034 -101.9659)">
			<stop  offset="0" style="stop-color:#E1473D"/>
			<stop  offset="1" style="stop-color:#E9605A"/>
		</linearGradient>
		<path style="fill:url(#SVGID_00000080208003544450988200000015327658734512949132_);" d="M2821.959,1630.207
			c-25.704,93.818-372.373,49.289-728.245-80.11c-438.745-159.532-579.025-351.561-550.819-444.657
			c12.758-42.108,352.375-32.941,696.933,124.123S2839.021,1567.932,2821.959,1630.207z"/>
		
			<linearGradient id="SVGID_00000093157198107821488570000015843444947129792181_" gradientUnits="userSpaceOnUse" x1="5016.9404" y1="-2145.009" x2="1600.3103" y2="3478.1846">
			<stop  offset="0" style="stop-color:#FF928E"/>
			<stop  offset="1" style="stop-color:#FE7062"/>
		</linearGradient>
		<path style="fill:url(#SVGID_00000093157198107821488570000015843444947129792181_);" d="M2602.908,1298.186
			c216.907-178.755,436.479-246.063,636.828-233.355l-0.023,245.067c-133.57-85.413-359.703,8.697-604.318,69.07L2602.908,1298.186z
			"/>
		<g>
			
				<linearGradient id="SVGID_00000114044447291435829260000013890950050478941084_" gradientUnits="userSpaceOnUse" x1="4454.0708" y1="-2478.2083" x2="1042.7708" y2="3136.2126">
				<stop  offset="0" style="stop-color:#FF928E"/>
				<stop  offset="1" style="stop-color:#FE7062"/>
			</linearGradient>
			<path style="fill:url(#SVGID_00000114044447291435829260000013890950050478941084_);" d="M1984.283,1635.821
				c-2155.417,590.177-1462.33,2121.954,123.806,1030.205l-9.595-27.865c-1473.63,844.239-1981.547-239.303-92.736-913.851
				L1984.283,1635.821z"/>
			
				<linearGradient id="SVGID_00000132796825355788840080000005028232353191398829_" gradientUnits="userSpaceOnUse" x1="4953.8105" y1="-2183.3625" x2="1537.1716" y2="3439.8457">
				<stop  offset="0" style="stop-color:#FF928E"/>
				<stop  offset="1" style="stop-color:#FE7062"/>
			</linearGradient>
			<path style="fill:url(#SVGID_00000132796825355788840080000005028232353191398829_);" d="M1890.747,2667.198
				c48.303,39.73,79.181,76.773,100.925,165.197c0.597,2.426,3.801,2.905,5.075,0.757c40.287-67.892,93.535-126.708,145.142-193.322
				c3.699-4.775-0.38-11.597-6.338-10.6c-88.615,14.831-167.619,35.495-242.932,33.04
				C1889.943,2662.184,1888.679,2665.498,1890.747,2667.198z"/>
		</g>
		<g>
			
				<linearGradient id="SVGID_00000115504911085275477440000015760203901884407485_" gradientUnits="userSpaceOnUse" x1="1432.3545" y1="2110.6282" x2="918.9192" y2="2598.646">
				<stop  offset="0" style="stop-color:#4F52FF"/>
				<stop  offset="1" style="stop-color:#4042E2"/>
			</linearGradient>
			<path style="fill:url(#SVGID_00000115504911085275477440000015760203901884407485_);" d="M1363.983,2033.713l-77.606,119.391
				c36.102,70.333,76.201,109.16,116.318,127.618c7.164-43.819,32.754-80.191,51.544-101.795
				C1382.674,2138.219,1363.983,2033.713,1363.983,2033.713z"/>
			
				<linearGradient id="SVGID_00000021102763974939072900000016025790361488309652_" gradientUnits="userSpaceOnUse" x1="1688.7036" y1="2135.8916" x2="1105.6533" y2="2418.3381">
				<stop  offset="0" style="stop-color:#FEBBBA"/>
				<stop  offset="1" style="stop-color:#FF928E"/>
			</linearGradient>
			<path style="fill:url(#SVGID_00000021102763974939072900000016025790361488309652_);" d="M1630.619,2157.493
				c-79.454,47.027-136.237,44.268-176.379,21.433c-18.79,21.605-44.38,57.976-51.544,101.795
				c127.53,58.677,255.236-89.011,255.236-89.011L1630.619,2157.493z"/>
			
				<linearGradient id="SVGID_00000134219416473269818170000009586582796916922798_" gradientUnits="userSpaceOnUse" x1="1691.4847" y1="2141.6323" x2="1108.4341" y2="2424.0791">
				<stop  offset="0" style="stop-color:#FEBBBA"/>
				<stop  offset="1" style="stop-color:#FF928E"/>
			</linearGradient>
			<path style="fill:url(#SVGID_00000134219416473269818170000009586582796916922798_);" d="M1634.943,2177.944
				c0,0-21.449-37.395,9.397-66.108c0,0,9.946-11.345,20.867,5.323c0,0,33.184-30.125,42.259-17.99
				c9.075,12.135,33.129,42.182,9.636,76.454C1693.344,2210.283,1645.421,2194.835,1634.943,2177.944z"/>
			<path style="fill:#F79E6D;" d="M1667.556,2157.365c-3.204,0-6.638-0.593-9.683-2.397c-2.973-1.761-6.719-5.433-7.673-12.929
				c-0.288-2.257,1.309-4.319,3.564-4.606c2.251-0.279,4.317,1.309,4.605,3.565c0.434,3.408,1.64,5.656,3.685,6.875
				c2.81,1.674,6.97,1.382,10.145,0.723l-7.439-23.591c-0.684-2.17,0.521-4.483,2.689-5.167c2.169-0.684,4.482,0.52,5.166,2.689
				l8.708,27.615c0.651,2.065-0.407,4.28-2.42,5.072C1678.094,2155.531,1673.184,2157.365,1667.556,2157.365z"/>
			
				<linearGradient id="SVGID_00000048495500232673499360000012591918084385044378_" gradientUnits="userSpaceOnUse" x1="496.9004" y1="3059.1489" x2="588.1798" y2="3059.1489">
				<stop  offset="0" style="stop-color:#4F52FF"/>
				<stop  offset="1" style="stop-color:#4042E2"/>
			</linearGradient>
			<path style="fill:url(#SVGID_00000048495500232673499360000012591918084385044378_);" d="M506.09,2959.296
				c-6.906,4.156-10.435,12.911-8.789,21.489c6.477,33.757,27.77,122.926,79.491,175.714c3.416,3.485,8.385,3.176,11.388,0.033
				c-13.097-13.644-29.336-36.966-48.318-76.575C510.686,3019.081,505.282,2981.535,506.09,2959.296z"/>
			
				<linearGradient id="SVGID_00000000937086129585630380000006729657386318834612_" gradientUnits="userSpaceOnUse" x1="506.0151" y1="3053.4102" x2="603.1485" y2="3053.4102">
				<stop  offset="0" style="stop-color:#09005D"/>
				<stop  offset="1" style="stop-color:#1A0F91"/>
			</linearGradient>
			<path style="fill:url(#SVGID_00000000937086129585630380000006729657386318834612_);" d="M572.875,2958.034
				c0,0-33.348-18.14-66.553,1.099c-0.083,0.048-0.151,0.114-0.232,0.163c-0.807,22.239,4.596,59.785,33.772,120.661
				c18.982,39.609,35.222,62.931,48.318,76.575c0.95-0.994,1.715-2.257,2.157-3.793
				C600.052,3118.987,620.566,3025.211,572.875,2958.034z"/>
			
				<linearGradient id="SVGID_00000064356028645477192130000007859192855538546080_" gradientUnits="userSpaceOnUse" x1="554.5071" y1="2955.1921" x2="625.9352" y2="2955.1921">
				<stop  offset="0" style="stop-color:#FEBBBA"/>
				<stop  offset="1" style="stop-color:#FF928E"/>
			</linearGradient>
			<path style="fill:url(#SVGID_00000064356028645477192130000007859192855538546080_);" d="M621.041,2960.134l-30.22,28.994
				c-5.345,5.128-13.542,5.955-19.714,1.858c-5.383-3.573-11.376-9.433-15.365-18.93c-2.394-5.699-1.245-12.293,2.914-16.867
				l30.17-33.188c7.201-7.921,20.013-6.611,25.461,2.604l9.434,15.956C627.478,2946.917,626.369,2955.023,621.041,2960.134z"/>
			
				<linearGradient id="SVGID_00000171708267433603988050000017063043883901276341_" gradientUnits="userSpaceOnUse" x1="1597.7933" y1="2731.4167" x2="1734.6277" y2="2731.4167">
				<stop  offset="0" style="stop-color:#4F52FF"/>
				<stop  offset="1" style="stop-color:#4042E2"/>
			</linearGradient>
			<path style="fill:url(#SVGID_00000171708267433603988050000017063043883901276341_);" d="M1597.793,2814.693
				c7.026,3.949,16.381,2.69,23.024-2.98c26.145-22.315,93.138-84.896,113.465-155.948c1.342-4.692-1.384-8.859-5.599-9.917
				c-5.388,18.129-17.637,43.773-42.688,79.851C1647.495,2781.15,1617.526,2804.404,1597.793,2814.693z"/>
			
				<linearGradient id="SVGID_00000127722792795194653450000005737585330160502181_" gradientUnits="userSpaceOnUse" x1="1563.6886" y1="2730.1377" x2="1728.6837" y2="2730.1377">
				<stop  offset="0" style="stop-color:#09005D"/>
				<stop  offset="1" style="stop-color:#1A0F91"/>
			</linearGradient>
			<path style="fill:url(#SVGID_00000127722792795194653450000005737585330160502181_);" d="M1563.689,2757.259
				c0,0,0.712,37.956,33.848,57.313c0.083,0.049,0.174,0.075,0.256,0.121c19.732-10.29,49.701-33.544,88.202-88.994
				c25.051-36.078,37.3-61.722,42.688-79.851c-1.334-0.335-2.81-0.375-4.364,0
				C1690.177,2654.084,1598.516,2682.598,1563.689,2757.259z"/>
			
				<linearGradient id="SVGID_00000039846076714189293390000014127842829483721104_" gradientUnits="userSpaceOnUse" x1="1519.9481" y1="2725.3591" x2="1598.4241" y2="2725.3591">
				<stop  offset="0" style="stop-color:#FEBBBA"/>
				<stop  offset="1" style="stop-color:#FF928E"/>
			</linearGradient>
			<path style="fill:url(#SVGID_00000039846076714189293390000014127842829483721104_);" d="M1561.351,2694.408l31.578,27.509
				c5.585,4.866,7.141,12.956,3.612,19.469c-3.078,5.681-8.379,12.174-17.482,16.995c-5.463,2.894-12.133,2.338-17.06-1.395
				l-35.75-27.084c-8.533-6.464-8.372-19.342,0.319-25.592l15.049-10.822C1547.611,2689.177,1555.783,2689.559,1561.351,2694.408z"
				/>
			
				<linearGradient id="SVGID_00000070801527602173018770000018162001610442768292_" gradientUnits="userSpaceOnUse" x1="1006.3043" y1="2502.9075" x2="509.2262" y2="3024.8398">
				<stop  offset="0" style="stop-color:#09005D"/>
				<stop  offset="1" style="stop-color:#1A0F91"/>
			</linearGradient>
			<path style="fill:url(#SVGID_00000070801527602173018770000018162001610442768292_);" d="M927.78,2415.982
				c0,0-61.618,209.915-101.455,302.178c0,0-69.638,10.623-112.74,35.807c-43.102,25.184-135.941,164.765-135.941,164.765
				s24.246,46.027,53.499,53.088l264.289-183.122l210.927-245.292l-10.012-113.772L927.78,2415.982z"/>
			
				<linearGradient id="SVGID_00000021111089803812633020000007875018119058652594_" gradientUnits="userSpaceOnUse" x1="1625.8076" y1="2318.532" x2="1316.2627" y2="2512.8447">
				<stop  offset="0" style="stop-color:#09005D"/>
				<stop  offset="1" style="stop-color:#1A0F91"/>
			</linearGradient>
			<path style="fill:url(#SVGID_00000021111089803812633020000007875018119058652594_);" d="M931.577,2398.858l-18.031,57.484
				c0,0,16.492,150.705,206.484,125.292s213.872-56.431,213.872-56.431s-16.493,96.251,191.257,211.978
				c0,0,31.578-23.838,38.529-50.908l-145.587-239.956c-20.25-31.475-39.03-39.765-76.008-33.983
				c-81.762,12.787-234.858,29.453-258.028,25.497L931.577,2398.858z"/>
			
				<linearGradient id="SVGID_00000023254329816983424220000010434155868410356355_" gradientUnits="userSpaceOnUse" x1="1297.9005" y1="1969.171" x2="784.4666" y2="2457.1873">
				<stop  offset="0" style="stop-color:#4F52FF"/>
				<stop  offset="1" style="stop-color:#4042E2"/>
			</linearGradient>
			<path style="fill:url(#SVGID_00000023254329816983424220000010434155868410356355_);" d="M1079.964,1971.407
				c-55.368,2.816-142.888,29.136-199.423,81.182c17.377,19.182,44.115,50.371,64.045,81.18
				c17.808-16.721,43.384-30.646,79.391-39.565c-31.123,116.322-67.91,227.146-112.74,330.16c-2.806,6.447,0.39,13.906,7.03,16.219
				c34.689,12.088,136.987,40.878,219.038-5.487l181.908-260.472c19.564-28.012,32.423-60.148,37.587-93.923l7.183-46.988
				C1363.983,2033.713,1200.609,1965.272,1079.964,1971.407z"/>
			
				<linearGradient id="SVGID_00000147196248696763842580000010113563521986284423_" gradientUnits="userSpaceOnUse" x1="965.124" y1="2326.55" x2="618.1185" y2="1713.2373">
				<stop  offset="0" style="stop-color:#FEBBBA"/>
				<stop  offset="1" style="stop-color:#FF928E"/>
			</linearGradient>
			<path style="fill:url(#SVGID_00000147196248696763842580000010113563521986284423_);" d="M980.756,2365.569
				c-7.906-17.457-34.973-33.768-47.891-40.776c-11.238-23.167-56.097-127.354,11.723-191.025
				c-19.931-30.809-46.668-61.998-64.045-81.18c-65.229,60.051-89.108,154.385,25.278,286.468
				c-6.243,32.532,14.128,70.414,25.144,75.723C936.038,2417.226,991.263,2388.771,980.756,2365.569z"/>
			<path style="fill:#91B3FA;" d="M1034.493,2094.252c-1.898,0-3.606-1.32-4.022-3.25c-0.48-2.223,0.933-4.415,3.156-4.894
				l50.579-10.915c2.232-0.479,4.416,0.935,4.894,3.156c0.48,2.223-0.933,4.415-3.156,4.895l-50.579,10.915
				C1035.073,2094.221,1034.781,2094.252,1034.493,2094.252z"/>
			
				<linearGradient id="SVGID_00000013893849744387878540000015921899783938508984_" gradientUnits="userSpaceOnUse" x1="1184.4852" y1="2064.0769" x2="1220.7998" y2="1960.5132">
				<stop  offset="0" style="stop-color:#FEBBBA"/>
				<stop  offset="1" style="stop-color:#FF928E"/>
			</linearGradient>
			<path style="fill:url(#SVGID_00000013893849744387878540000015921899783938508984_);" d="M1202.838,1902.223l-47.525,93.022
				c-2.899,5.675-2.036,12.534,2.221,17.275c11.508,12.817,38.687,33.636,85.964,18.716c5.212-1.645,8.964-6.227,9.756-11.635
				l12.376-84.482L1202.838,1902.223z"/>
			<g>
				
					<linearGradient id="SVGID_00000006702106661538521530000012487708684340802207_" gradientUnits="userSpaceOnUse" x1="1287.9099" y1="1850.5696" x2="1128.5608" y2="1972.496">
					<stop  offset="0" style="stop-color:#FEBBBA"/>
					<stop  offset="1" style="stop-color:#FF928E"/>
				</linearGradient>
				<path style="fill:url(#SVGID_00000006702106661538521530000012487708684340802207_);" d="M1282.067,1794.207
					c0,0,27.874,64.032,29.746,97.641s9.114,55.416-29.746,62.184s-71.597-12.591-89.332-46.069c0,0-27.787-51.586-21.554-72.711
					C1177.415,1814.126,1282.067,1794.207,1282.067,1794.207z"/>
				
					<linearGradient id="SVGID_00000167369411046960170960000000516697530096072579_" gradientUnits="userSpaceOnUse" x1="1175.7351" y1="1754.0306" x2="1324.1437" y2="1945.1063">
					<stop  offset="0" style="stop-color:#09005D"/>
					<stop  offset="1" style="stop-color:#1A0F91"/>
				</linearGradient>
				<path style="fill:url(#SVGID_00000167369411046960170960000000516697530096072579_);" d="M1206.014,1883.893l2.212-0.975
					c2.816-1.242,4.021-4.594,2.606-7.327c-5.48-10.588-16.163-34.85-2.362-40.51c17.785-7.294,88.235-21.661,103.436-46.659
					c14.609-24.025,1.665-55.038-17.788-63.859c-1.302-0.59-2.836-0.122-3.504,1.142l-1.621,3.067c-1.11,2.1-4.211,1.782-4.871-0.5
					l0,0c-0.634-2.19-3.547-2.615-4.755-0.681c-4.672,7.479-17.286,19.603-51.019,25.829c-47.941,8.848-79.636,28.249-80.425,61.376
					c-0.05,2.105-2.289,3.275-4.087,2.179c-3.54-2.157-9.204-3.169-16.775,3.196c-13.166,11.071-7.778,39.788,21.084,63.411
					c1.371,1.122,1.36,3.263-0.125,4.229c-5.233,3.406-13.033,11.511,7.178,22.315c20.905,11.175,36.516,10.258,42.527,9.266
					c1.495-0.247,2.459-1.695,2.133-3.175l-6.416-29.116c-0.363-1.648,0.891-3.209,2.579-3.209H1206.014z"/>
				
					<linearGradient id="SVGID_00000049924321542960053050000001467590928239902354_" gradientUnits="userSpaceOnUse" x1="1268.1445" y1="1824.7375" x2="1108.7953" y2="1946.6639">
					<stop  offset="0" style="stop-color:#FEBBBA"/>
					<stop  offset="1" style="stop-color:#FF928E"/>
				</linearGradient>
				<path style="fill:url(#SVGID_00000049924321542960053050000001467590928239902354_);" d="M1207.222,1890.037
					c0,0-10.634-40.903-28.973-29.434s9.516,45.83,24.26,47.36L1207.222,1890.037z"/>
			</g>
		</g>
		<g>
			
				<linearGradient id="SVGID_00000048474809500149520330000011188992619647946908_" gradientUnits="userSpaceOnUse" x1="2503.5391" y1="1718.4048" x2="2137.5254" y2="3050.2861">
				<stop  offset="0" style="stop-color:#4F52FF"/>
				<stop  offset="1" style="stop-color:#4042E2"/>
			</linearGradient>
			
				<circle style="fill:url(#SVGID_00000048474809500149520330000011188992619647946908_);" cx="2284.782" cy="2514.437" r="132.597"/>
			<g>
				
					<linearGradient id="SVGID_00000065035134303031389980000005167113100997398921_" gradientUnits="userSpaceOnUse" x1="1189.2046" y1="1617.1616" x2="2836.3486" y2="1251.1298">
					<stop  offset="0" style="stop-color:#4F52FF"/>
					<stop  offset="1" style="stop-color:#4042E2"/>
				</linearGradient>
				<path style="fill:url(#SVGID_00000065035134303031389980000005167113100997398921_);" d="M2952.971,1050.415
					c0,252.188-379.838,895.577-577.704,1212.938c-15.354,24.627-48.429,39.583-109.674,39.583
					c-29.021,0-17.606-15.02-32.961-39.647c-197.879-317.388-577.664-960.716-577.664-1212.874
					c0-328.838,290.568-595.415,649.002-595.415C2662.403,455,2952.971,721.577,2952.971,1050.415z"/>
				
					<linearGradient id="SVGID_00000010274407968042226140000003480782093930109598_" gradientUnits="userSpaceOnUse" x1="2446.032" y1="765.0353" x2="1225.7166" y2="2921.6897">
					<stop  offset="0" style="stop-color:#4F52FF"/>
					<stop  offset="1" style="stop-color:#4042E2"/>
				</linearGradient>
				<path style="fill:url(#SVGID_00000010274407968042226140000003480782093930109598_);" d="M2914.595,1050.415
					c0,252.188-379.838,895.576-577.704,1212.938c-15.354,24.627-42.327,39.596-71.348,39.583s-55.932-15.02-71.286-39.647
					c-197.879-317.388-577.664-960.716-577.664-1212.874c0-328.838,290.568-595.415,649.002-595.415
					C2624.027,455,2914.595,721.577,2914.595,1050.415z"/>
				
					<ellipse transform="matrix(0.7071 -0.7071 0.7071 0.7071 -93.9008 1928.8937)" style="fill:#91B3FA;" cx="2281.43" cy="1077.795" rx="396.107" ry="396.107"/>
				<circle style="opacity:0.36;fill:#FFFFFF;" cx="2243.039" cy="1038.863" r="287.998"/>
				<path style="fill:#BDD0FB;" d="M2265.593,1580.177c-265.471,0-481.447-215.978-481.447-481.45c0-4.763,3.861-8.626,8.626-8.626
					c4.765,0,8.626,3.863,8.626,8.626c0,255.959,208.235,464.199,464.195,464.199s464.198-208.239,464.198-464.199
					S2521.552,634.53,2265.593,634.53c-148.006,0-283.714,68.132-372.323,186.923c-2.85,3.819-8.261,4.606-12.073,1.758
					c-3.819-2.848-4.606-8.254-1.759-12.071c91.903-123.201,232.65-193.862,386.154-193.862
					c265.471,0,481.45,215.978,481.45,481.448C2747.044,1364.199,2531.064,1580.177,2265.593,1580.177z"/>
			</g>
		</g>
		
			<linearGradient id="SVGID_00000079476609295171911980000010130080685840015491_" gradientUnits="userSpaceOnUse" x1="4511.5576" y1="-2452.0833" x2="1094.917" y2="3171.1277">
			<stop  offset="0" style="stop-color:#FF928E"/>
			<stop  offset="1" style="stop-color:#FE7062"/>
		</linearGradient>
		<path style="fill:url(#SVGID_00000079476609295171911980000010130080685840015491_);" d="M1547.237,1100.094
			c-19.775,15.279-30.697,40.508-37.393,72.778c-10.45,50.367,2.051,102.691,31.834,144.631
			c218.233,307.316,740.332,468.651,1203.298,413.032c36.582-4.395,65.904-32.346,71.83-68.711l7.133-43.774
			c2.006-12.308-8.122-23.22-20.541-22.092c-204.765,18.602-406.117-0.377-607.192-39.324
			c-468.945-90.832-663.714-391.45-643.934-437.043c2.485-5.728,5.618-11.816,10.723-15.412
			c13.157-9.268,36.151-17.511,55.508-20.55C1591.367,1082.527,1562.212,1088.524,1547.237,1100.094z"/>
	</g>
</g>
</svg>
